<svg width="1146" height="345" viewBox="0 0 1146 345" fill="none" xmlns="http://www.w3.org/2000/svg">
<path d="M934.135 213.242C928.067 214.278 923.035 216.794 919.039 220.79C915.191 224.786 912.083 229.522 909.715 234.998C907.347 240.326 905.645 246.024 904.609 252.092C903.573 258.16 902.907 263.784 902.611 268.964C908.531 268.668 914.081 267.41 919.261 265.19C924.441 262.822 928.955 259.788 932.803 256.088C936.799 252.24 939.907 247.726 942.127 242.546C944.347 237.366 945.457 231.816 945.457 225.896C945.457 217.016 941.683 212.798 934.135 213.242ZM872.863 268.298C872.863 267.262 873.233 266.448 873.973 265.856C874.861 265.264 875.823 265.116 876.859 265.412C877.007 265.56 877.451 265.708 878.191 265.856C879.079 266.004 879.893 266.078 880.633 266.078C881.077 260.602 881.891 254.904 883.075 248.984C884.407 243.064 886.183 237.292 888.403 231.668C890.623 225.896 893.361 220.42 896.617 215.24C899.873 210.06 903.573 205.472 907.717 201.476C912.009 197.48 916.819 194.372 922.147 192.152C927.475 189.784 933.321 188.6 939.685 188.6C948.861 188.6 955.891 191.264 960.775 196.592C965.659 201.772 968.101 208.876 968.101 217.904C968.101 227.524 966.473 236.922 963.217 246.098C959.961 255.274 955.299 263.414 949.231 270.518C943.311 277.622 936.133 283.394 927.697 287.834C919.409 292.126 910.233 294.272 900.169 294.272C898.393 294.272 896.395 294.198 894.175 294.05C892.103 293.754 889.809 293.31 887.293 292.718H887.071C882.779 291.682 879.301 289.462 876.637 286.058C874.121 282.654 872.863 278.806 872.863 274.514V268.298ZM901.279 297.602C901.723 299.674 902.463 301.968 903.499 304.484C904.535 306.852 905.867 309.146 907.495 311.366C909.123 313.438 910.973 315.214 913.045 316.694C915.117 318.026 917.337 318.692 919.705 318.692C927.253 318.692 934.135 316.546 940.351 312.254C946.715 307.814 952.339 302.412 957.223 296.048C962.107 289.536 966.325 282.506 969.877 274.958C973.429 267.41 976.241 260.454 978.313 254.09L994.519 265.19C993.335 268.298 991.929 271.85 990.301 275.846C988.821 279.842 987.193 283.986 985.417 288.278C983.641 292.422 981.717 296.492 979.645 300.488C977.573 304.484 975.427 308.036 973.207 311.144C970.099 315.288 966.695 319.358 962.995 323.354C959.295 327.202 955.225 330.68 950.785 333.788C946.493 336.896 941.905 339.412 937.021 341.336C932.137 343.112 926.957 344 921.481 344C916.449 344 911.491 342.816 906.607 340.448C901.723 337.932 897.653 334.75 894.397 330.902C889.957 326.166 886.479 320.394 883.963 313.586C881.447 306.63 880.189 299.97 880.189 293.606C881.965 294.642 883.963 295.456 886.183 296.048C888.403 296.64 889.957 296.936 890.845 296.936C892.325 297.084 893.879 297.232 895.507 297.38C897.283 297.528 899.207 297.602 901.279 297.602Z" fill="white"/>
<path d="M837.844 245.654C837.252 245.358 836.364 244.766 835.18 243.878C833.996 242.842 833.404 241.288 833.404 239.216C833.404 236.848 834.218 235.146 835.846 234.11C836.586 233.666 837.474 233.296 838.51 233C837.474 232.852 836.512 232.556 835.624 232.112C834.884 231.816 834.07 231.372 833.182 230.78C832.294 230.04 831.48 229.152 830.74 228.116C829.556 226.34 829.26 224.786 829.852 223.454C830.592 222.122 831.258 221.16 831.85 220.568L832.294 220.124L831.85 220.568C831.554 220.864 831.036 221.234 830.296 221.678C829.556 221.974 828.594 222.122 827.41 222.122C825.93 222.122 824.45 221.752 822.97 221.012C821.342 220.272 820.232 219.532 819.64 218.792C819.048 218.052 818.678 217.312 818.53 216.572C818.382 215.832 818.456 215.092 818.752 214.352C818.16 214.944 817.494 215.536 816.754 216.128C816.014 216.572 815.2 217.016 814.312 217.46C813.572 217.756 812.684 217.904 811.648 217.904C810.76 217.904 809.946 217.756 809.206 217.46C808.614 217.016 808.096 216.572 807.652 216.128C807.06 215.536 806.616 214.944 806.32 214.352V264.968C807.208 264.376 808.022 263.784 808.762 263.192C809.502 262.896 810.242 262.6 810.982 262.304C811.722 261.86 812.314 261.786 812.758 262.082C813.35 262.23 813.794 262.6 814.09 263.192C814.386 263.636 814.682 264.154 814.978 264.746C815.274 265.486 815.57 266.3 815.866 267.188C816.014 266.152 816.236 265.264 816.532 264.524C816.828 263.784 817.198 263.044 817.642 262.304C818.234 261.416 818.974 260.824 819.862 260.528C821.638 259.788 823.118 260.01 824.302 261.194C825.042 261.638 825.634 262.23 826.078 262.97C825.93 261.934 825.856 260.972 825.856 260.084C826.004 259.344 826.152 258.604 826.3 257.864C826.596 256.976 827.04 256.236 827.632 255.644C828.52 254.756 829.704 254.46 831.184 254.756C831.776 254.904 832.368 255.2 832.96 255.644C832.516 254.756 832.22 253.868 832.072 252.98C831.924 252.24 831.85 251.426 831.85 250.538C831.998 249.65 832.368 248.762 832.96 247.874C833.848 246.542 834.736 245.802 835.624 245.654C836.66 245.506 837.4 245.506 837.844 245.654C838.14 245.802 838.288 245.876 838.288 245.876H838.51H838.288C838.14 245.728 837.992 245.654 837.844 245.654ZM858.934 241.88C858.194 245.728 857.084 248.096 855.604 248.984C854.272 249.724 853.384 250.094 852.94 250.094H852.718C854.494 251.722 855.9 253.424 856.936 255.2C857.824 256.828 858.342 258.53 858.49 260.306C858.638 262.082 857.898 263.784 856.27 265.412C854.642 267.04 853.014 268.224 851.386 268.964C849.906 269.704 848.574 270.148 847.39 270.296C846.058 270.444 844.726 270.37 843.394 270.074C843.986 271.702 844.282 273.256 844.282 274.736C844.282 275.92 843.912 277.104 843.172 278.288C842.58 279.472 841.248 280.286 839.176 280.73C838.436 281.026 837.77 281.174 837.178 281.174C836.586 281.174 835.994 281.174 835.402 281.174C833.33 281.174 831.48 280.656 829.852 279.62C829.26 279.324 828.742 278.88 828.298 278.288C828.594 279.472 828.668 280.582 828.52 281.618C828.372 282.358 828.002 283.098 827.41 283.838C826.966 284.578 826.078 285.096 824.746 285.392C823.414 285.688 822.23 285.688 821.194 285.392C820.158 285.096 819.27 284.726 818.53 284.282C817.642 283.838 816.902 283.246 816.31 282.506C816.31 283.542 816.162 284.504 815.866 285.392C815.274 287.316 814.016 288.352 812.092 288.5C810.908 288.648 809.798 288.5 808.762 288.056C807.874 287.464 807.06 286.872 806.32 286.28V344H786.118V190.598H806.32V193.928C807.06 193.336 808.022 192.744 809.206 192.152C810.39 191.412 811.796 191.042 813.424 191.042C815.792 191.042 817.864 192.004 819.64 193.928C821.416 195.852 822.452 197.924 822.748 200.144C823.784 199.108 824.968 198.146 826.3 197.258C827.336 196.518 828.446 195.852 829.63 195.26C830.962 194.668 832.294 194.372 833.626 194.372C834.81 194.372 835.92 194.668 836.956 195.26C837.992 195.704 838.88 196.592 839.62 197.924C841.1 200.292 841.988 202.438 842.284 204.362C842.728 206.138 842.802 207.766 842.506 209.246C842.358 210.874 841.914 212.28 841.174 213.464C843.394 213.02 845.466 212.946 847.39 213.242C849.018 213.538 850.424 214.204 851.608 215.24C852.94 216.128 853.754 217.756 854.05 220.124C854.346 222.344 854.346 224.268 854.05 225.896C853.754 227.376 853.384 228.634 852.94 229.67C852.496 230.854 851.904 231.816 851.164 232.556C852.94 232.704 854.42 233.148 855.604 233.888C856.788 234.48 857.75 235.442 858.49 236.774C859.23 237.958 859.378 239.66 858.934 241.88Z" fill="white"/>
<path d="M745.943 306.926C748.607 307.074 750.753 306.26 752.381 304.484C754.009 302.708 754.971 300.488 755.267 297.824C755.711 295.16 755.563 292.348 754.823 289.388C754.083 286.28 752.751 283.616 750.827 281.396C749.643 279.916 747.867 278.658 745.499 277.622C743.279 276.586 740.985 275.55 738.617 274.514C736.249 273.33 734.103 272.146 732.179 270.962C730.403 269.63 729.293 268.002 728.849 266.078C728.405 263.414 729.071 260.528 730.847 257.42C732.623 254.312 736.249 252.166 741.725 250.982C744.389 250.39 746.313 249.206 747.497 247.43C748.829 245.506 749.495 243.508 749.495 241.436C749.643 239.216 749.199 237.144 748.163 235.22C747.127 233.296 745.721 232.038 743.945 231.446C742.169 230.706 740.541 230.336 739.061 230.336C737.581 230.336 736.101 230.928 734.621 232.112C733.141 233.296 731.661 235.59 730.181 238.994C729.293 241.362 728.553 243.73 727.961 246.098C727.369 248.466 726.777 250.612 726.185 252.536C725.593 254.312 724.853 255.792 723.965 256.976C723.225 258.012 722.115 258.53 720.635 258.53C719.747 258.53 718.711 258.308 717.527 257.864C715.307 256.976 713.901 255.718 713.309 254.09C712.865 252.314 712.791 250.538 713.087 248.762C713.531 246.838 714.271 244.988 715.307 243.212C716.343 241.436 717.379 240.03 718.415 238.994C719.599 237.81 721.005 236.478 722.633 234.998C724.261 233.518 725.741 231.89 727.073 230.114C728.553 228.338 729.589 226.562 730.181 224.786C730.921 222.862 730.921 220.938 730.181 219.014C729.145 216.942 728.035 215.462 726.851 214.574C725.815 213.686 724.779 213.242 723.743 213.242C722.263 213.242 721.153 213.982 720.413 215.462C720.117 216.202 719.747 217.46 719.303 219.236C719.007 221.012 718.637 222.862 718.193 224.786C717.749 226.71 717.157 228.412 716.417 229.892C715.825 231.224 715.085 231.89 714.197 231.89C713.605 231.89 713.161 231.742 712.865 231.446C711.533 230.558 710.719 229.448 710.423 228.116C710.127 226.636 710.053 225.082 710.201 223.454C710.497 221.678 710.867 219.976 711.311 218.348C711.755 216.72 712.051 215.314 712.199 214.13C712.791 211.17 711.829 208.654 709.313 206.582C706.945 204.51 704.059 203.844 700.655 204.584C697.843 205.028 695.993 206.36 695.105 208.58C694.365 210.652 694.143 212.502 694.439 214.13C694.735 216.202 695.475 218.052 696.659 219.68C697.991 221.308 699.027 222.714 699.767 223.898C700.803 225.378 701.691 226.932 702.431 228.56C703.319 230.188 703.985 231.816 704.429 233.444C704.873 234.924 705.243 236.552 705.539 238.328C705.835 239.956 705.909 241.584 705.761 243.212C705.761 244.692 705.465 246.024 704.873 247.208C704.281 248.392 703.319 249.354 701.987 250.094C699.323 251.426 696.733 252.092 694.217 252.092C691.257 252.092 688.371 251.056 685.559 248.984C682.895 246.764 680.453 243.212 678.233 238.328C676.161 234.036 673.793 230.928 671.129 229.004C668.465 226.932 665.875 225.896 663.359 225.896C660.695 225.896 658.179 226.932 655.811 229.004C652.851 231.816 651.889 235.146 652.925 238.994C654.109 242.694 658.475 246.542 666.023 250.538C669.723 252.462 672.683 254.016 674.903 255.2C677.271 256.384 679.047 257.346 680.231 258.086C681.563 258.826 682.377 259.566 682.673 260.306C683.117 260.898 683.265 261.638 683.117 262.526C682.969 264.006 681.933 264.968 680.009 265.412C678.233 265.708 676.087 265.93 673.571 266.078C671.055 266.078 668.465 266.152 665.801 266.3C663.285 266.448 661.139 266.966 659.363 267.854C657.439 268.742 655.589 270 653.813 271.628C652.037 273.108 650.631 274.662 649.595 276.29C648.559 277.918 648.041 279.62 648.041 281.396C648.189 283.172 649.225 284.726 651.149 286.058C652.481 286.946 653.813 287.39 655.145 287.39C656.773 287.39 658.401 286.872 660.029 285.836C661.657 284.8 663.285 283.616 664.913 282.284C666.541 280.952 668.169 279.694 669.797 278.51C671.425 277.178 673.053 276.29 674.681 275.846C676.309 275.402 677.715 275.18 678.899 275.18C680.527 275.18 681.933 275.476 683.117 276.068C684.449 276.66 685.263 277.548 685.559 278.732C686.003 279.916 685.929 281.396 685.337 283.172C684.893 284.948 683.709 286.946 681.785 289.166C679.565 291.978 677.419 295.012 675.347 298.268C673.423 301.524 672.017 304.706 671.129 307.814C670.241 310.922 670.093 313.734 670.685 316.25C671.425 318.766 673.423 320.69 676.679 322.022C677.715 322.318 678.603 322.614 679.343 322.91C680.231 323.058 681.119 323.132 682.007 323.132C684.227 323.132 686.077 322.54 687.557 321.356C689.185 320.172 690.443 318.766 691.331 317.138C692.367 315.362 693.107 313.512 693.551 311.588C693.995 309.664 694.217 307.962 694.217 306.482C694.217 304.706 694.143 302.19 693.995 298.934C693.995 295.53 694.143 292.274 694.439 289.166C694.883 286.058 695.549 283.468 696.437 281.396C697.473 279.324 699.027 278.658 701.099 279.398C705.391 281.026 707.981 283.542 708.869 286.946C709.905 290.35 709.905 294.864 708.869 300.488C708.277 303.3 708.055 306.112 708.203 308.924C708.351 311.588 708.795 313.956 709.535 316.028C710.275 317.952 711.311 319.432 712.643 320.468C713.975 321.356 715.529 321.578 717.305 321.134C720.857 319.95 723.743 317.952 725.963 315.14C728.183 312.18 728.257 308.11 726.185 302.93C725.149 300.414 723.891 297.898 722.411 295.382C721.079 292.718 719.969 290.202 719.081 287.834C718.193 285.466 717.823 283.32 717.971 281.396C718.119 279.472 719.155 277.844 721.079 276.512C722.707 275.476 724.409 274.958 726.185 274.958C728.849 274.958 730.995 276.068 732.623 278.288C734.251 280.36 735.213 282.432 735.509 284.504C735.509 285.54 735.361 287.316 735.065 289.832C734.917 292.2 735.065 294.642 735.509 297.158C735.953 299.526 736.915 301.672 738.395 303.596C739.875 305.52 742.391 306.63 745.943 306.926ZM703.097 188.6C711.977 188.6 720.339 190.672 728.183 194.816C736.027 198.812 742.835 204.362 748.607 211.466C754.527 218.422 759.189 226.636 762.593 236.108C765.997 245.58 767.699 255.644 767.699 266.3C767.699 276.956 765.997 287.02 762.593 296.492C759.189 305.964 754.527 314.252 748.607 321.356C742.835 328.312 736.027 333.862 728.183 338.006C720.339 342.002 711.977 344 703.097 344C694.217 344 685.855 342.002 678.011 338.006C670.167 333.862 663.359 328.312 657.587 321.356C651.815 314.252 647.227 305.964 643.823 296.492C640.419 287.02 638.717 276.956 638.717 266.3C638.717 255.644 640.419 245.58 643.823 236.108C647.227 226.636 651.815 218.422 657.587 211.466C663.359 204.362 670.167 198.812 678.011 194.816C685.855 190.672 694.217 188.6 703.097 188.6Z" fill="white"/>
<path d="M536.449 237.884C536.301 238.476 536.153 239.068 536.005 239.66C535.709 240.252 535.413 240.918 535.117 241.658C534.969 242.398 534.747 243.286 534.451 244.322C534.155 245.21 533.489 245.95 532.453 246.542C531.565 246.986 530.529 247.504 529.345 248.096C528.309 248.54 527.347 249.058 526.459 249.65C525.719 250.242 525.349 251.13 525.349 252.314C525.349 253.498 525.719 254.312 526.459 254.756C527.347 255.2 528.235 255.644 529.123 256.088C530.159 256.532 531.121 257.05 532.009 257.642C532.897 258.234 533.341 259.27 533.341 260.75C533.341 262.23 532.897 263.414 532.009 264.302C531.121 265.19 530.085 266.004 528.901 266.744C527.865 267.484 526.903 268.298 526.015 269.186C525.127 269.926 524.683 270.962 524.683 272.294C524.683 273.626 525.275 274.514 526.459 274.958C527.643 275.402 528.901 275.772 530.233 276.068C531.713 276.216 533.119 276.512 534.451 276.956C535.783 277.4 536.523 278.288 536.671 279.62C536.967 280.952 536.745 281.766 536.005 282.062C535.265 282.21 534.377 282.284 533.341 282.284C532.305 282.284 531.343 282.432 530.455 282.728C529.567 282.876 528.975 283.542 528.679 284.726C528.383 286.354 528.753 287.612 529.789 288.5C530.973 289.24 532.083 289.758 533.119 290.054C534.451 290.498 535.265 291.46 535.561 292.94C536.005 295.308 536.893 299.082 538.225 304.262C539.557 309.294 541.703 314.474 544.663 319.802C547.623 324.982 551.545 329.57 556.429 333.566C561.313 337.562 567.455 339.634 574.855 339.782C580.035 339.93 584.623 339.19 588.619 337.562C592.763 335.934 596.315 333.788 599.275 331.124C602.235 328.46 604.751 325.426 606.823 322.022C609.043 318.47 610.893 314.844 612.373 311.144C615.629 302.56 617.627 292.792 618.367 281.84H623.473C622.585 293.976 620.365 304.706 616.813 314.03C614.741 319.358 611.929 324.464 608.377 329.348C604.973 334.232 600.533 338.154 595.057 341.114C589.729 343.926 583.217 345.184 575.521 344.888C569.009 344.592 563.311 343.334 558.427 341.114C553.543 338.894 549.251 336.156 545.551 332.9C541.999 329.496 538.965 325.87 536.449 322.022C534.081 318.026 532.157 314.252 530.677 310.7C529.197 307 528.087 303.744 527.347 300.932C526.607 298.12 526.163 296.122 526.015 294.938C525.867 293.162 525.349 291.978 524.461 291.386C523.721 290.646 522.833 290.128 521.797 289.832C520.909 289.388 520.095 288.944 519.355 288.5C518.615 287.908 518.245 286.872 518.245 285.392C518.245 284.208 518.615 283.394 519.355 282.95C520.095 282.506 520.909 282.21 521.797 282.062C522.685 281.914 523.499 281.766 524.239 281.618C525.127 281.322 525.571 280.878 525.571 280.286C525.571 279.546 525.053 279.028 524.017 278.732C523.129 278.288 522.093 277.77 520.909 277.178C519.725 276.586 518.541 275.92 517.357 275.18C516.321 274.292 515.655 273.034 515.359 271.406C515.063 269.778 515.285 268.594 516.025 267.854C516.765 266.966 517.653 266.226 518.689 265.634C519.725 264.894 520.761 264.228 521.797 263.636C522.833 262.896 523.425 262.008 523.573 260.972C523.869 259.936 523.647 259.27 522.907 258.974C522.167 258.53 521.205 258.16 520.021 257.864C518.985 257.42 517.875 256.976 516.691 256.532C515.655 255.94 514.915 254.978 514.471 253.646C514.027 252.462 514.175 251.352 514.915 250.316C515.655 249.132 516.617 248.096 517.801 247.208C519.133 246.32 520.391 245.58 521.575 244.988C522.759 244.396 523.425 243.952 523.573 243.656C523.869 243.36 524.091 242.916 524.239 242.324C524.387 241.732 524.535 241.14 524.683 240.548C524.831 239.808 524.979 238.994 525.127 238.106C527.199 228.93 530.381 220.642 534.673 213.242C536.449 210.134 538.595 207.174 541.111 204.362C543.627 201.402 546.513 198.738 549.769 196.37C553.025 194.002 556.651 192.152 560.647 190.82C564.791 189.34 569.379 188.6 574.411 188.6C577.815 188.6 581.293 188.97 584.845 189.71C588.101 190.45 591.653 191.708 595.501 193.484C599.497 195.112 603.419 197.628 607.267 201.032C608.451 201.92 609.339 202.364 609.931 202.364C610.967 202.364 611.633 201.772 611.929 200.588C612.225 199.404 612.447 198.146 612.595 196.814C612.595 195.186 612.521 193.336 612.373 191.264H619.255V242.546H615.925C616.073 233.814 614.889 225.896 612.373 218.792C611.337 215.832 609.857 212.872 607.933 209.912C606.157 206.952 603.863 204.362 601.051 202.142C598.239 199.774 594.909 197.776 591.061 196.148C587.213 194.52 582.625 193.558 577.297 193.262C570.933 193.262 565.013 194.816 559.537 197.924C557.169 199.256 554.801 201.032 552.433 203.252C550.065 205.324 547.845 207.988 545.773 211.244C543.701 214.352 541.851 218.126 540.223 222.566C538.595 226.858 537.337 231.964 536.449 237.884Z" fill="white"/>
<path d="M389.107 213.242C383.039 214.278 378.007 216.794 374.011 220.79C370.163 224.786 367.055 229.522 364.687 234.998C362.319 240.326 360.617 246.024 359.581 252.092C358.545 258.16 357.879 263.784 357.583 268.964C363.503 268.668 369.053 267.41 374.233 265.19C379.413 262.822 383.927 259.788 387.775 256.088C391.771 252.24 394.879 247.726 397.099 242.546C399.319 237.366 400.429 231.816 400.429 225.896C400.429 217.016 396.655 212.798 389.107 213.242ZM327.835 268.298C327.835 267.262 328.205 266.448 328.945 265.856C329.833 265.264 330.795 265.116 331.831 265.412C331.979 265.56 332.423 265.708 333.163 265.856C334.051 266.004 334.865 266.078 335.605 266.078C336.049 260.602 336.863 254.904 338.047 248.984C339.379 243.064 341.155 237.292 343.375 231.668C345.595 225.896 348.333 220.42 351.589 215.24C354.845 210.06 358.545 205.472 362.689 201.476C366.981 197.48 371.791 194.372 377.119 192.152C382.447 189.784 388.293 188.6 394.657 188.6C403.833 188.6 410.863 191.264 415.747 196.592C420.631 201.772 423.073 208.876 423.073 217.904C423.073 227.524 421.445 236.922 418.189 246.098C414.933 255.274 410.271 263.414 404.203 270.518C398.283 277.622 391.105 283.394 382.669 287.834C374.381 292.126 365.205 294.272 355.141 294.272C353.365 294.272 351.367 294.198 349.147 294.05C347.075 293.754 344.781 293.31 342.265 292.718H342.043C337.751 291.682 334.273 289.462 331.609 286.058C329.093 282.654 327.835 278.806 327.835 274.514V268.298ZM356.251 297.602C356.695 299.674 357.435 301.968 358.471 304.484C359.507 306.852 360.839 309.146 362.467 311.366C364.095 313.438 365.945 315.214 368.017 316.694C370.089 318.026 372.309 318.692 374.677 318.692C382.225 318.692 389.107 316.546 395.323 312.254C401.687 307.814 407.311 302.412 412.195 296.048C417.079 289.536 421.297 282.506 424.849 274.958C428.401 267.41 431.213 260.454 433.285 254.09L449.491 265.19C448.307 268.298 446.901 271.85 445.273 275.846C443.793 279.842 442.165 283.986 440.389 288.278C438.613 292.422 436.689 296.492 434.617 300.488C432.545 304.484 430.399 308.036 428.179 311.144C425.071 315.288 421.667 319.358 417.967 323.354C414.267 327.202 410.197 330.68 405.757 333.788C401.465 336.896 396.877 339.412 391.993 341.336C387.109 343.112 381.929 344 376.453 344C371.421 344 366.463 342.816 361.579 340.448C356.695 337.932 352.625 334.75 349.369 330.902C344.929 326.166 341.451 320.394 338.935 313.586C336.419 306.63 335.161 299.97 335.161 293.606C336.937 294.642 338.935 295.456 341.155 296.048C343.375 296.64 344.929 296.936 345.817 296.936C347.297 297.084 348.851 297.232 350.479 297.38C352.255 297.528 354.179 297.602 356.251 297.602Z" fill="white"/>
<path d="M223.259 215.462C220.151 211.91 218.153 208.506 217.265 205.25C216.525 201.994 216.525 199.182 217.265 196.814C218.153 194.298 219.707 192.3 221.927 190.82C224.147 189.34 226.663 188.6 229.475 188.6C232.139 188.6 234.951 189.34 237.911 190.82C240.871 192.152 243.831 194.446 246.791 197.702C249.751 200.958 252.785 205.398 255.893 211.022C259.149 216.646 262.479 222.27 265.883 227.894C269.287 233.518 272.913 238.698 276.761 243.434C280.609 248.022 284.753 251.056 289.193 252.536C290.821 252.98 292.301 253.202 293.633 253.202C295.409 253.202 297.037 252.906 298.517 252.314C299.997 251.574 301.033 250.686 301.625 249.65C302.365 248.614 302.513 247.43 302.069 246.098C301.625 244.766 300.515 243.508 298.739 242.324C296.667 240.696 293.929 238.55 290.525 235.886C287.269 233.074 284.087 229.966 280.979 226.562C278.019 223.158 275.429 219.532 273.209 215.684C270.989 211.836 269.953 208.062 270.101 204.362C270.249 201.846 270.915 199.552 272.099 197.48C273.431 195.26 275.059 193.484 276.983 192.152C279.055 190.672 281.275 189.636 283.643 189.044C286.011 188.452 288.305 188.378 290.525 188.822C294.225 189.71 297.555 192.596 300.515 197.48C303.623 202.216 306.213 207.84 308.285 214.352C310.357 220.864 311.911 227.746 312.947 234.998C313.983 242.102 314.205 248.614 313.613 254.534C313.169 260.306 311.763 264.894 309.395 268.298C307.175 271.554 303.919 272.59 299.627 271.406C294.743 270.074 290.303 267.78 286.307 264.524C282.311 261.12 278.685 257.272 275.429 252.98C272.173 248.688 269.139 244.174 266.327 239.438C263.663 234.554 261.147 229.892 258.779 225.452C256.411 221.012 254.117 217.016 251.897 213.464C249.677 209.764 247.383 207.026 245.015 205.25C243.535 203.918 241.981 203.252 240.353 203.252C238.873 203.252 237.689 203.992 236.801 205.472C236.061 206.804 235.987 208.728 236.579 211.244C237.763 215.684 240.279 220.642 244.127 226.118C247.975 231.594 252.341 237.44 257.225 243.656C262.109 249.872 266.993 256.532 271.877 263.636C276.761 270.592 280.831 277.77 284.087 285.17C287.343 292.57 289.267 300.192 289.859 308.036C290.599 315.732 289.193 323.502 285.641 331.346C283.569 335.786 281.127 339.042 278.315 341.114C275.651 343.038 272.765 344 269.657 344C266.401 344 262.997 342.964 259.445 340.892C255.893 338.82 252.563 336.082 249.455 332.678C246.347 329.126 243.461 325.056 240.797 320.468C238.281 315.732 236.209 310.774 234.581 305.594C234.285 304.854 233.693 303.152 232.805 300.488C232.065 297.676 231.103 294.42 229.919 290.72C228.883 287.02 227.625 283.172 226.145 279.176C224.665 275.18 223.111 271.48 221.483 268.076C219.855 264.672 218.153 261.86 216.377 259.64C214.749 257.42 213.121 256.31 211.493 256.31C210.013 256.31 208.681 257.124 207.497 258.752C206.017 260.824 205.499 263.266 205.943 266.078C206.387 268.89 207.275 272.072 208.607 275.624C210.087 279.028 211.863 282.728 213.935 286.724C216.007 290.572 218.005 294.716 219.929 299.156C222.001 303.448 223.703 307.888 225.035 312.476C226.515 317.064 227.255 321.652 227.255 326.24C227.403 332.752 226.293 337.34 223.925 340.004C221.557 342.668 218.449 344 214.601 344C211.641 344 208.385 343.334 204.833 342.002C201.429 340.522 197.951 338.672 194.399 336.452C190.995 334.084 187.739 331.42 184.631 328.46C181.671 325.5 179.081 322.466 176.861 319.358C169.609 308.702 163.837 297.38 159.545 285.392C155.253 273.256 152.663 260.676 151.775 247.652C151.331 240.992 151.553 234.184 152.441 227.228C153.329 220.272 154.809 213.982 156.881 208.358C159.101 202.586 161.913 197.85 165.317 194.15C168.721 190.45 172.643 188.6 177.083 188.6C178.711 188.6 180.265 188.822 181.745 189.266C186.037 190.45 189.367 192.966 191.735 196.814C194.251 200.514 195.953 204.806 196.841 209.69C197.877 214.426 198.247 219.384 197.951 224.564C197.655 229.744 196.915 234.48 195.731 238.772C194.547 242.916 192.993 246.246 191.069 248.762C189.293 251.13 187.295 252.018 185.075 251.426C183.891 251.13 182.337 250.242 180.413 248.762C178.637 247.282 176.713 245.728 174.641 244.1C172.717 242.472 170.719 240.992 168.647 239.66C166.723 238.328 164.873 237.662 163.097 237.662C160.877 237.662 159.175 239.068 157.991 241.88C157.251 243.656 156.881 246.32 156.881 249.872C156.881 253.276 157.103 257.05 157.547 261.194C158.139 265.19 158.953 269.408 159.989 273.848C161.025 278.14 162.209 282.136 163.541 285.836C164.725 289.24 166.427 292.644 168.647 296.048C171.015 299.452 173.605 302.486 176.417 305.15C179.229 307.814 182.115 309.96 185.075 311.588C188.035 313.216 190.699 314.03 193.067 314.03C195.139 314.03 196.841 313.29 198.173 311.81C199.653 310.182 200.541 307.518 200.837 303.818C201.133 298.046 200.837 292.348 199.949 286.724C199.209 280.952 198.691 275.106 198.395 269.186C198.247 266.078 198.395 262.526 198.839 258.53C199.431 254.534 200.393 250.76 201.725 247.208C203.057 243.508 204.907 240.326 207.275 237.662C209.791 234.85 212.899 233.148 216.599 232.556C217.191 232.408 218.079 232.334 219.263 232.334C223.851 232.334 227.625 234.11 230.585 237.662C233.693 241.214 236.209 245.654 238.133 250.982C240.205 256.31 241.907 262.008 243.239 268.076C244.571 274.144 245.829 279.768 247.013 284.948C248.345 290.276 250.121 295.382 252.341 300.266C254.709 305.15 257.225 309.516 259.889 313.364C262.553 317.064 265.217 320.024 267.881 322.244C270.693 324.464 273.209 325.574 275.429 325.574C277.649 325.574 279.351 324.316 280.535 321.8C281.867 319.136 282.385 314.696 282.089 308.48C281.793 297.824 279.869 288.648 276.317 280.952C272.913 273.108 268.399 265.782 262.775 258.974C257.299 252.018 251.083 245.21 244.127 238.55C237.319 231.742 230.363 224.046 223.259 215.462Z" fill="white"/>
<path d="M1073.57 27.462C1066.47 36.046 1059.44 43.742 1052.48 50.55C1045.67 57.21 1039.46 64.018 1033.83 70.974C1028.36 77.782 1023.84 85.108 1020.29 92.952C1016.89 100.648 1015.04 109.824 1014.74 120.48C1014.45 126.696 1014.89 131.136 1016.07 133.8C1017.41 136.316 1019.18 137.574 1021.4 137.574C1023.62 137.574 1026.06 136.464 1028.73 134.244C1031.54 132.024 1034.28 129.064 1036.94 125.364C1039.61 121.516 1042.05 117.15 1044.27 112.266C1046.64 107.382 1048.49 102.276 1049.82 96.948C1051 91.768 1052.26 86.144 1053.59 80.076C1054.92 74.008 1056.55 68.31 1058.48 62.982C1060.55 57.654 1063.06 53.214 1066.02 49.662C1069.13 46.11 1072.98 44.334 1077.57 44.334C1078.75 44.334 1079.64 44.408 1080.23 44.556C1084.08 45.148 1087.19 46.85 1089.56 49.662C1091.92 52.326 1093.77 55.508 1095.11 59.208C1096.59 62.76 1097.55 66.534 1097.99 70.53C1098.44 74.526 1098.58 78.078 1098.44 81.186C1098.14 87.106 1097.55 92.952 1096.66 98.724C1095.92 104.348 1095.7 110.046 1095.99 115.818C1096.29 119.518 1097.1 122.182 1098.44 123.81C1099.92 125.29 1101.69 126.03 1103.76 126.03C1106.13 126.03 1108.8 125.216 1111.76 123.588C1114.72 121.96 1117.6 119.814 1120.41 117.15C1123.23 114.486 1125.74 111.452 1127.96 108.048C1130.33 104.644 1132.11 101.24 1133.29 97.836C1134.62 94.136 1135.81 90.14 1136.84 85.848C1137.88 81.408 1138.62 77.19 1139.06 73.194C1139.65 69.05 1139.95 65.276 1139.95 61.872C1139.95 58.32 1139.58 55.656 1138.84 53.88C1137.66 51.068 1135.95 49.662 1133.73 49.662C1131.96 49.662 1130.03 50.328 1127.96 51.66C1126.04 52.992 1124.04 54.472 1121.97 56.1C1120.04 57.728 1118.12 59.282 1116.2 60.762C1114.42 62.242 1112.94 63.13 1111.76 63.426C1109.54 64.018 1107.46 63.13 1105.54 60.762C1103.76 58.246 1102.28 54.916 1101.1 50.772C1099.92 46.48 1099.18 41.744 1098.88 36.564C1098.73 31.384 1099.1 26.426 1099.99 21.69C1101.03 16.806 1102.73 12.514 1105.1 8.81401C1107.61 4.96601 1111.02 2.45001 1115.31 1.26601C1116.94 0.822008 1118.49 0.600006 1119.97 0.600006C1124.41 0.600006 1128.26 2.45001 1131.51 6.15001C1134.92 9.85001 1137.66 14.586 1139.73 20.358C1141.95 25.982 1143.5 32.272 1144.39 39.228C1145.28 46.184 1145.5 52.992 1145.06 59.652C1144.17 72.676 1141.58 85.256 1137.29 97.392C1132.99 109.38 1127.22 120.702 1119.97 131.358C1117.75 134.466 1115.09 137.5 1111.98 140.46C1109.02 143.42 1105.76 146.084 1102.21 148.452C1098.81 150.672 1095.33 152.522 1091.78 154.002C1088.37 155.334 1085.19 156 1082.23 156C1078.38 156 1075.27 154.668 1072.91 152.004C1070.54 149.34 1069.43 144.752 1069.58 138.24C1069.72 133.504 1070.46 128.916 1071.8 124.476C1073.13 119.888 1074.76 115.448 1076.68 111.156C1078.75 106.716 1080.82 102.572 1082.9 98.724C1084.97 94.728 1086.67 91.028 1088 87.624C1089.48 84.072 1090.44 80.89 1090.89 78.078C1091.33 75.266 1090.81 72.824 1089.33 70.752C1088.15 69.124 1086.89 68.31 1085.56 68.31C1083.93 68.31 1082.23 69.42 1080.45 71.64C1078.83 73.86 1077.2 76.672 1075.57 80.076C1073.94 83.48 1072.39 87.18 1070.91 91.176C1069.43 95.172 1068.1 99.02 1066.91 102.72C1065.73 106.42 1064.69 109.676 1063.8 112.488C1063.06 115.152 1062.55 116.854 1062.25 117.594C1060.77 122.774 1058.7 127.732 1056.03 132.468C1053.52 137.056 1050.63 141.126 1047.38 144.678C1044.27 148.082 1041.01 150.82 1037.61 152.892C1034.2 154.964 1030.8 156 1027.4 156C1024.29 156 1021.33 155.038 1018.52 153.114C1015.7 151.042 1013.26 147.786 1011.19 143.346C1007.64 135.502 1006.16 127.732 1006.75 120.036C1007.49 112.192 1009.49 104.57 1012.74 97.17C1016 89.77 1020.07 82.592 1024.95 75.636C1029.84 68.532 1034.72 61.872 1039.61 55.656C1044.49 49.44 1048.86 43.594 1052.7 38.118C1056.55 32.642 1059.07 27.684 1060.25 23.244C1060.84 20.728 1060.7 18.804 1059.81 17.472C1059.07 15.992 1057.96 15.252 1056.48 15.252C1055 15.252 1053.44 15.918 1051.82 17.25C1049.45 19.026 1047.15 21.764 1044.93 25.464C1042.71 29.016 1040.42 33.012 1038.05 37.452C1035.68 41.892 1033.09 46.554 1030.28 51.438C1027.62 56.174 1024.66 60.688 1021.4 64.98C1018.15 69.272 1014.52 73.12 1010.52 76.524C1006.53 79.78 1002.09 82.074 997.203 83.406C992.911 84.59 989.581 83.554 987.213 80.298C984.993 76.894 983.587 72.306 982.995 66.534C982.551 60.614 982.847 54.102 983.883 46.998C984.919 39.746 986.473 32.864 988.545 26.352C990.617 19.84 993.207 14.216 996.315 9.48001C999.423 4.59601 1002.75 1.71001 1006.31 0.822003C1007.05 0.674005 1008.08 0.600006 1009.41 0.600006C1013.56 0.600006 1017.41 2.08001 1020.96 5.04002C1024.51 8.00001 1026.43 11.774 1026.73 16.362C1026.88 20.062 1025.84 23.836 1023.62 27.684C1021.4 31.532 1018.74 35.158 1015.63 38.562C1012.67 41.966 1009.49 45.074 1006.08 47.886C1002.83 50.55 1000.16 52.696 998.091 54.324C996.315 55.508 995.205 56.766 994.761 58.098C994.317 59.43 994.391 60.614 994.983 61.65C995.723 62.686 996.833 63.574 998.313 64.314C999.793 64.906 1001.42 65.202 1003.2 65.202C1004.68 65.202 1006.16 64.98 1007.64 64.536C1012.08 63.056 1016.22 60.022 1020.07 55.434C1023.92 50.698 1027.54 45.518 1030.95 39.894C1034.35 34.27 1037.61 28.646 1040.72 23.022C1043.97 17.398 1047.08 12.958 1050.04 9.70201C1053 6.44601 1055.96 4.152 1058.92 2.82C1061.88 1.34001 1064.69 0.600006 1067.36 0.600006C1070.32 0.600006 1072.83 1.34001 1074.9 2.82C1077.12 4.30001 1078.6 6.29801 1079.34 8.81401C1080.23 11.182 1080.23 13.994 1079.34 17.25C1078.6 20.506 1076.68 23.91 1073.57 27.462Z" fill="white"/>
<path d="M941.71 118.926C944.374 119.074 946.52 118.26 948.148 116.484C949.776 114.708 950.738 112.488 951.034 109.824C951.478 107.16 951.33 104.348 950.59 101.388C949.85 98.28 948.518 95.616 946.594 93.396C945.41 91.916 943.634 90.658 941.266 89.622C939.046 88.586 936.752 87.55 934.384 86.514C932.016 85.33 929.87 84.146 927.946 82.962C926.17 81.63 925.06 80.002 924.616 78.078C924.172 75.414 924.838 72.528 926.614 69.42C928.39 66.312 932.016 64.166 937.492 62.982C940.156 62.39 942.08 61.206 943.264 59.43C944.596 57.506 945.262 55.508 945.262 53.436C945.41 51.216 944.966 49.144 943.93 47.22C942.894 45.296 941.488 44.038 939.712 43.446C937.936 42.706 936.308 42.336 934.828 42.336C933.348 42.336 931.868 42.928 930.388 44.112C928.908 45.296 927.428 47.59 925.948 50.994C925.06 53.362 924.32 55.73 923.728 58.098C923.136 60.466 922.544 62.612 921.952 64.536C921.36 66.312 920.62 67.792 919.732 68.976C918.992 70.012 917.882 70.53 916.402 70.53C915.514 70.53 914.478 70.308 913.294 69.864C911.074 68.976 909.668 67.718 909.076 66.09C908.632 64.314 908.558 62.538 908.854 60.762C909.298 58.838 910.038 56.988 911.074 55.212C912.11 53.436 913.146 52.03 914.182 50.994C915.366 49.81 916.772 48.478 918.4 46.998C920.028 45.518 921.508 43.89 922.84 42.114C924.32 40.338 925.356 38.562 925.948 36.786C926.688 34.862 926.688 32.938 925.948 31.014C924.912 28.942 923.802 27.462 922.618 26.574C921.582 25.686 920.546 25.242 919.51 25.242C918.03 25.242 916.92 25.982 916.18 27.462C915.884 28.202 915.514 29.46 915.07 31.236C914.774 33.012 914.404 34.862 913.96 36.786C913.516 38.71 912.924 40.412 912.184 41.892C911.592 43.224 910.852 43.89 909.964 43.89C909.372 43.89 908.928 43.742 908.632 43.446C907.3 42.558 906.486 41.448 906.19 40.116C905.894 38.636 905.82 37.082 905.968 35.454C906.264 33.678 906.634 31.976 907.078 30.348C907.522 28.72 907.818 27.314 907.966 26.13C908.558 23.17 907.596 20.654 905.08 18.582C902.712 16.51 899.826 15.844 896.422 16.584C893.61 17.028 891.76 18.36 890.872 20.58C890.132 22.652 889.91 24.502 890.206 26.13C890.502 28.202 891.242 30.052 892.426 31.68C893.758 33.308 894.794 34.714 895.534 35.898C896.57 37.378 897.458 38.932 898.198 40.56C899.086 42.188 899.752 43.816 900.196 45.444C900.64 46.924 901.01 48.552 901.306 50.328C901.602 51.956 901.676 53.584 901.528 55.212C901.528 56.692 901.232 58.024 900.64 59.208C900.048 60.392 899.086 61.354 897.754 62.094C895.09 63.426 892.5 64.092 889.984 64.092C887.024 64.092 884.138 63.056 881.326 60.984C878.662 58.764 876.22 55.212 874 50.328C871.928 46.036 869.56 42.928 866.896 41.004C864.232 38.932 861.642 37.896 859.126 37.896C856.462 37.896 853.946 38.932 851.578 41.004C848.618 43.816 847.656 47.146 848.692 50.994C849.876 54.694 854.242 58.542 861.79 62.538C865.49 64.462 868.45 66.016 870.67 67.2C873.038 68.384 874.814 69.346 875.998 70.086C877.33 70.826 878.144 71.566 878.44 72.306C878.884 72.898 879.032 73.638 878.884 74.526C878.736 76.006 877.7 76.968 875.776 77.412C874 77.708 871.854 77.93 869.338 78.078C866.822 78.078 864.232 78.152 861.568 78.3C859.052 78.448 856.906 78.966 855.13 79.854C853.206 80.742 851.356 82 849.58 83.628C847.804 85.108 846.398 86.662 845.362 88.29C844.326 89.918 843.808 91.62 843.808 93.396C843.956 95.172 844.992 96.726 846.916 98.058C848.248 98.946 849.58 99.39 850.912 99.39C852.54 99.39 854.168 98.872 855.796 97.836C857.424 96.8 859.052 95.616 860.68 94.284C862.308 92.952 863.936 91.694 865.564 90.51C867.192 89.178 868.82 88.29 870.448 87.846C872.076 87.402 873.482 87.18 874.666 87.18C876.294 87.18 877.7 87.476 878.884 88.068C880.216 88.66 881.03 89.548 881.326 90.732C881.77 91.916 881.696 93.396 881.104 95.172C880.66 96.948 879.476 98.946 877.552 101.166C875.332 103.978 873.186 107.012 871.114 110.268C869.19 113.524 867.784 116.706 866.896 119.814C866.008 122.922 865.86 125.734 866.452 128.25C867.192 130.766 869.19 132.69 872.446 134.022C873.482 134.318 874.37 134.614 875.11 134.91C875.998 135.058 876.886 135.132 877.774 135.132C879.994 135.132 881.844 134.54 883.324 133.356C884.952 132.172 886.21 130.766 887.098 129.138C888.134 127.362 888.874 125.512 889.318 123.588C889.762 121.664 889.984 119.962 889.984 118.482C889.984 116.706 889.91 114.19 889.762 110.934C889.762 107.53 889.91 104.274 890.206 101.166C890.65 98.058 891.316 95.468 892.204 93.396C893.24 91.324 894.794 90.658 896.866 91.398C901.158 93.026 903.748 95.542 904.636 98.946C905.672 102.35 905.672 106.864 904.636 112.488C904.044 115.3 903.822 118.112 903.97 120.924C904.118 123.588 904.562 125.956 905.302 128.028C906.042 129.952 907.078 131.432 908.41 132.468C909.742 133.356 911.296 133.578 913.072 133.134C916.624 131.95 919.51 129.952 921.73 127.14C923.95 124.18 924.024 120.11 921.952 114.93C920.916 112.414 919.658 109.898 918.178 107.382C916.846 104.718 915.736 102.202 914.848 99.834C913.96 97.466 913.59 95.32 913.738 93.396C913.886 91.472 914.922 89.844 916.846 88.512C918.474 87.476 920.176 86.958 921.952 86.958C924.616 86.958 926.762 88.068 928.39 90.288C930.018 92.36 930.98 94.432 931.276 96.504C931.276 97.54 931.128 99.316 930.832 101.832C930.684 104.2 930.832 106.642 931.276 109.158C931.72 111.526 932.682 113.672 934.162 115.596C935.642 117.52 938.158 118.63 941.71 118.926ZM898.864 0.600006C907.744 0.600006 916.106 2.67201 923.95 6.81601C931.794 10.812 938.602 16.362 944.374 23.466C950.294 30.422 954.956 38.636 958.36 48.108C961.764 57.58 963.466 67.644 963.466 78.3C963.466 88.956 961.764 99.02 958.36 108.492C954.956 117.964 950.294 126.252 944.374 133.356C938.602 140.312 931.794 145.862 923.95 150.006C916.106 154.002 907.744 156 898.864 156C889.984 156 881.622 154.002 873.778 150.006C865.934 145.862 859.126 140.312 853.354 133.356C847.582 126.252 842.994 117.964 839.59 108.492C836.186 99.02 834.484 88.956 834.484 78.3C834.484 67.644 836.186 57.58 839.59 48.108C842.994 38.636 847.582 30.422 853.354 23.466C859.126 16.362 865.934 10.812 873.778 6.81601C881.622 2.67201 889.984 0.600006 898.864 0.600006Z" fill="white"/>
<path d="M798.928 0.600006H817.576V156H798.928V73.638C798.188 75.266 797.152 77.412 795.82 80.076C794.636 82.592 793.156 85.108 791.38 87.624C789.604 89.992 787.606 92.064 785.386 93.84C783.314 95.616 781.02 96.504 778.504 96.504C777.172 96.504 776.136 96.356 775.396 96.06C771.992 94.876 769.698 92.804 768.514 89.844C767.33 86.736 766.59 83.628 766.294 80.52C765.998 77.264 765.702 74.378 765.406 71.862C765.11 69.346 764.148 68.014 762.52 67.866C761.336 67.718 760.004 67.94 758.524 68.532C757.192 68.976 755.786 69.642 754.306 70.53C752.974 71.418 751.716 72.38 750.532 73.416C749.348 74.452 748.312 75.34 747.424 76.08V156H726.778V0.600006H747.424V70.752C749.496 68.976 752.086 67.126 755.194 65.202C758.45 63.13 761.336 62.094 763.852 62.094C765.48 62.094 766.812 62.686 767.848 63.87C769.476 65.794 770.66 67.644 771.4 69.42C772.288 71.196 773.028 72.824 773.62 74.304C774.36 75.784 775.1 77.116 775.84 78.3C776.728 79.336 777.838 80.15 779.17 80.742C780.946 81.482 782.796 81.334 784.72 80.298C786.644 79.114 788.494 77.56 790.27 75.636C792.046 73.564 793.674 71.344 795.154 68.976C796.782 66.608 798.04 64.61 798.928 62.982V0.600006Z" fill="white"/>
<path d="M649.74 108.714H649.962C654.106 111.526 657.288 114.856 659.508 118.704C661.728 122.552 662.986 126.4 663.282 130.248C663.726 134.096 663.208 137.796 661.728 141.348C660.396 144.752 658.176 147.564 655.068 149.784C652.552 151.412 649.592 152.818 646.188 154.002C642.932 155.038 639.232 155.556 635.088 155.556C627.984 155.556 619.992 153.558 611.112 149.562C602.38 145.566 593.13 138.462 583.362 128.25C575.666 120.258 569.302 113.228 564.27 107.16C559.386 101.092 555.612 95.764 552.948 91.176C550.284 86.44 548.73 82.296 548.286 78.744C547.99 75.192 548.582 71.862 550.062 68.754C550.95 66.978 552.134 65.572 553.614 64.536C555.094 63.352 556.87 62.76 558.942 62.76C561.162 62.76 563.16 63.426 564.936 64.758L625.764 106.272C627.244 107.308 628.502 106.938 629.538 105.162C629.834 104.422 629.834 103.756 629.538 103.164C629.39 102.424 629.02 101.906 628.428 101.61L587.358 73.416C577.886 66.756 571.152 61.65 567.156 58.098C563.456 54.694 560.274 50.846 557.61 46.554C555.094 42.262 553.244 37.896 552.06 33.456C551.024 28.868 550.802 24.428 551.394 20.136C551.986 15.844 553.466 11.996 555.834 8.592C559.682 3.41199 564.788 0.821991 571.152 0.821991C577.368 0.821991 584.842 3.26399 593.574 8.148C602.454 12.884 612.888 20.284 624.876 30.348C634.052 37.896 641.452 45.148 647.076 52.104C652.848 59.06 657.14 65.424 659.952 71.196C662.912 76.82 664.614 81.778 665.058 86.07C665.502 90.214 664.984 93.396 663.504 95.616C662.616 96.948 661.358 98.058 659.73 98.946C658.25 99.834 656.4 100.278 654.18 100.278C651.96 100.278 649.37 99.76 646.41 98.724C643.45 97.54 640.046 95.542 636.198 92.73L602.232 69.642C601.64 69.346 600.974 69.272 600.234 69.42C599.494 69.568 598.902 70.012 598.458 70.752C597.866 72.38 598.236 73.564 599.568 74.304L649.74 108.714Z" fill="white"/>
<path d="M492.349 43.224C493.533 41.892 494.939 40.338 496.567 38.562C498.343 36.786 500.119 35.084 501.895 33.456C503.671 31.828 505.373 30.422 507.001 29.238C508.777 28.054 510.257 27.388 511.441 27.24C517.065 26.352 520.691 27.388 522.319 30.348C524.095 33.16 523.059 37.156 519.211 42.336C518.471 43.372 517.287 44.556 515.659 45.888C514.179 47.22 512.625 48.774 510.997 50.55C509.369 52.178 507.889 53.88 506.557 55.656C505.373 57.432 504.707 59.282 504.559 61.206C504.411 62.982 505.003 64.832 506.335 66.756C507.815 68.532 510.331 70.234 513.883 71.862C519.359 74.23 523.429 76.968 526.093 80.076C528.757 83.184 530.311 86.81 530.755 90.954C531.347 95.098 530.903 99.834 529.423 105.162C528.091 110.342 526.019 116.262 523.207 122.922C518.767 133.874 513.957 142.162 508.777 147.786C503.745 153.41 499.157 156.222 495.013 156.222C492.941 156.222 491.165 155.482 489.685 154.002C488.205 152.522 487.539 150.82 487.687 148.896C487.835 146.824 488.575 144.382 489.907 141.57C491.387 138.758 493.311 135.502 495.679 131.802C498.047 128.102 500.637 123.81 503.449 118.926C506.261 114.042 508.111 109.972 508.999 106.716C510.035 103.312 510.109 100.352 509.221 97.836C508.333 95.172 506.483 92.656 503.671 90.288C501.007 87.772 497.307 84.886 492.571 81.63C487.391 77.93 484.431 73.786 483.691 69.198C483.099 64.61 483.395 60.466 484.579 56.766C486.207 51.586 488.797 47.072 492.349 43.224ZM542.521 12.144C542.521 12.884 542.447 13.55 542.299 14.142C542.151 14.734 541.929 15.4 541.633 16.14C540.153 19.692 538.451 22.06 536.527 23.244C534.751 24.28 532.975 24.798 531.199 24.798C529.423 24.798 527.869 24.576 526.537 24.132C525.501 23.836 524.391 23.318 523.207 22.578C522.171 21.69 521.283 20.58 520.543 19.248C519.803 17.916 519.359 16.288 519.211 14.364C519.211 12.44 519.729 10.146 520.765 7.482C520.765 7.33401 520.839 7.18601 520.987 7.03801C522.023 4.52201 523.429 2.746 525.205 1.71C527.129 0.674004 529.127 0.156006 531.199 0.156006C534.159 0.156006 536.823 1.19201 539.191 3.26401C541.707 5.336 542.817 8.29601 542.521 12.144Z" fill="white"/>
<path d="M409.096 108.714H409.318C413.462 111.526 416.644 114.856 418.864 118.704C421.084 122.552 422.342 126.4 422.638 130.248C423.082 134.096 422.564 137.796 421.084 141.348C419.752 144.752 417.532 147.564 414.424 149.784C411.908 151.412 408.948 152.818 405.544 154.002C402.288 155.038 398.588 155.556 394.444 155.556C387.34 155.556 379.348 153.558 370.468 149.562C361.736 145.566 352.486 138.462 342.718 128.25C335.022 120.258 328.658 113.228 323.626 107.16C318.742 101.092 314.968 95.764 312.304 91.176C309.64 86.44 308.086 82.296 307.642 78.744C307.346 75.192 307.938 71.862 309.418 68.754C310.306 66.978 311.49 65.572 312.97 64.536C314.45 63.352 316.226 62.76 318.298 62.76C320.518 62.76 322.516 63.426 324.292 64.758L385.12 106.272C386.6 107.308 387.858 106.938 388.894 105.162C389.19 104.422 389.19 103.756 388.894 103.164C388.746 102.424 388.376 101.906 387.784 101.61L346.714 73.416C337.242 66.756 330.508 61.65 326.512 58.098C322.812 54.694 319.63 50.846 316.966 46.554C314.45 42.262 312.6 37.896 311.416 33.456C310.38 28.868 310.158 24.428 310.75 20.136C311.342 15.844 312.822 11.996 315.19 8.592C319.038 3.41199 324.144 0.821991 330.508 0.821991C336.724 0.821991 344.198 3.26399 352.93 8.148C361.81 12.884 372.244 20.284 384.232 30.348C393.408 37.896 400.808 45.148 406.432 52.104C412.204 59.06 416.496 65.424 419.308 71.196C422.268 76.82 423.97 81.778 424.414 86.07C424.858 90.214 424.34 93.396 422.86 95.616C421.972 96.948 420.714 98.058 419.086 98.946C417.606 99.834 415.756 100.278 413.536 100.278C411.316 100.278 408.726 99.76 405.766 98.724C402.806 97.54 399.402 95.542 395.554 92.73L361.588 69.642C360.996 69.346 360.33 69.272 359.59 69.42C358.85 69.568 358.258 70.012 357.814 70.752C357.222 72.38 357.592 73.564 358.924 74.304L409.096 108.714Z" fill="white"/>
<path d="M251.705 43.224C252.889 41.892 254.295 40.338 255.923 38.562C257.699 36.786 259.475 35.084 261.251 33.456C263.027 31.828 264.729 30.422 266.357 29.238C268.133 28.054 269.613 27.388 270.797 27.24C276.421 26.352 280.047 27.388 281.675 30.348C283.451 33.16 282.415 37.156 278.567 42.336C277.827 43.372 276.643 44.556 275.015 45.888C273.535 47.22 271.981 48.774 270.353 50.55C268.725 52.178 267.245 53.88 265.913 55.656C264.729 57.432 264.063 59.282 263.915 61.206C263.767 62.982 264.359 64.832 265.691 66.756C267.171 68.532 269.687 70.234 273.239 71.862C278.715 74.23 282.785 76.968 285.449 80.076C288.113 83.184 289.667 86.81 290.111 90.954C290.703 95.098 290.259 99.834 288.779 105.162C287.447 110.342 285.375 116.262 282.563 122.922C278.123 133.874 273.313 142.162 268.133 147.786C263.101 153.41 258.513 156.222 254.369 156.222C252.297 156.222 250.521 155.482 249.041 154.002C247.561 152.522 246.895 150.82 247.043 148.896C247.191 146.824 247.931 144.382 249.263 141.57C250.743 138.758 252.667 135.502 255.035 131.802C257.403 128.102 259.993 123.81 262.805 118.926C265.617 114.042 267.467 109.972 268.355 106.716C269.391 103.312 269.465 100.352 268.577 97.836C267.689 95.172 265.839 92.656 263.027 90.288C260.363 87.772 256.663 84.886 251.927 81.63C246.747 77.93 243.787 73.786 243.047 69.198C242.455 64.61 242.751 60.466 243.935 56.766C245.563 51.586 248.153 47.072 251.705 43.224ZM301.877 12.144C301.877 12.884 301.803 13.55 301.655 14.142C301.507 14.734 301.285 15.4 300.989 16.14C299.509 19.692 297.807 22.06 295.883 23.244C294.107 24.28 292.331 24.798 290.555 24.798C288.779 24.798 287.225 24.576 285.893 24.132C284.857 23.836 283.747 23.318 282.563 22.578C281.527 21.69 280.639 20.58 279.899 19.248C279.159 17.916 278.715 16.288 278.567 14.364C278.567 12.44 279.085 10.146 280.121 7.482C280.121 7.33401 280.195 7.18601 280.343 7.03801C281.379 4.52201 282.785 2.746 284.561 1.71C286.485 0.674004 288.483 0.156006 290.555 0.156006C293.515 0.156006 296.179 1.19201 298.547 3.26401C301.063 5.336 302.173 8.29601 301.877 12.144Z" fill="white"/>
<path d="M207.579 74.304C212.611 74.008 216.385 74.378 218.901 75.414C221.417 76.45 223.193 77.634 224.229 78.966C225.265 80.15 225.783 81.334 225.783 82.518C225.931 83.554 226.005 84.072 226.005 84.072C226.153 95.616 226.227 107.53 226.227 119.814C226.227 131.95 226.227 144.012 226.227 156H207.579V84.96C206.839 86.588 205.803 88.734 204.471 91.398C203.287 93.914 201.807 96.43 200.031 98.946C198.255 101.314 196.257 103.386 194.037 105.162C191.965 106.938 189.671 107.826 187.155 107.826C185.823 107.826 184.787 107.678 184.047 107.382C180.643 106.198 178.349 104.126 177.165 101.166C175.981 98.058 175.241 94.95 174.945 91.842C174.649 88.586 174.353 85.7 174.057 83.184C173.761 80.668 172.799 79.336 171.171 79.188C169.987 79.04 168.655 79.262 167.175 79.854C165.843 80.298 164.437 80.964 162.957 81.852C161.625 82.74 160.367 83.702 159.183 84.738C157.999 85.774 156.963 86.662 156.075 87.402V156H135.429V0.600006H156.075V82.074C158.147 80.298 160.737 78.448 163.845 76.524C167.101 74.452 169.987 73.416 172.503 73.416C174.131 73.416 175.463 74.008 176.499 75.192C178.127 77.116 179.311 78.966 180.051 80.742C180.939 82.518 181.679 84.146 182.271 85.626C183.011 87.106 183.751 88.438 184.491 89.622C185.379 90.658 186.489 91.472 187.821 92.064C189.597 92.804 191.447 92.656 193.371 91.62C195.295 90.436 197.145 88.882 198.921 86.958C200.697 84.886 202.325 82.666 203.805 80.298C205.433 77.93 206.691 75.932 207.579 74.304Z" fill="white"/>
<path d="M99.9019 11.256L95.0179 16.584L117.218 4.37401L122.768 15.474L80.8099 38.784L77.4799 28.128L82.8079 22.356L65.7139 32.568V156H44.6239V32.568L53.2819 23.022L30.6379 36.342L26.6419 25.464L27.7519 21.468L5.77394 35.898L0.223938 25.686L38.6299 0.600006L42.8479 12.366L39.0739 17.694L64.8259 1.48801L70.3759 10.146L67.0459 15.918L95.2399 0.600006L99.9019 11.256Z" fill="white"/>
</svg>
